<?xml version="1.0" encoding="utf-8"?>
<!-- Generator: Adobe Illustrator 23.0.5, SVG Export Plug-In . SVG Version: 6.00 Build 0)  -->
<svg version="1.1" id="Layer_1" xmlns="http://www.w3.org/2000/svg" xmlns:xlink="http://www.w3.org/1999/xlink" x="0px" y="0px"
	 viewBox="0 0 1920 1080" style="enable-background:new 0 0 1920 1080;" xml:space="preserve">
<style type="text/css">
	.st0{fill:#1D0C72;}
</style>
<g>
	<path class="st0" d="M876.92,379.95c36.14,0,55.17,15.43,57.11,46.26c0,13.5-3.25,23.26-9.76,29.28
		c-6.51,6.03-10.48,8.56-11.93,7.59c-5.31-4.34-11.57-7.95-18.8-10.84c-7.23-2.89-15.67-4.34-25.3-4.34
		c-27.96,0-48.07,12.54-60.36,37.59c-12.29,25.06-18.43,57.59-18.43,97.58v122.16c0,13.01-3.02,21.93-9.03,26.74
		c-6.03,4.81-13.62,7.23-22.77,7.23h-7.95c-9.16,0-16.75-2.42-22.77-7.23c-6.03-4.81-9.04-13.73-9.04-26.74V392.96
		c0-0.96,2.53-2.53,7.59-4.7c5.06-2.17,11.2-3.25,18.43-3.25c8.19,0,16.26,2.42,24.21,7.23c7.95,4.82,13.85,13.98,17.71,27.47
		c1.92,7.23,2.89,15.9,2.89,26.02C803.66,401.88,833.06,379.95,876.92,379.95z"/>
	<path class="st0" d="M994.3,277.3c0-26.02,14.46-39.99,43.37-41.93c26.98,0,40.96,13.98,41.92,41.93
		c0,26.02-14.22,39.76-42.65,41.2C1010.44,318.51,996.22,304.77,994.3,277.3z M1000.09,705.23V419.7c0-13.01,3.13-22.05,9.39-27.11
		c6.26-5.06,13.97-7.59,23.13-7.59h7.23c9.64,0,17.35,2.42,23.13,7.23c5.78,4.82,8.67,13.98,8.67,27.47v285.53
		c0,13.01-2.89,21.93-8.67,26.74c-5.78,4.81-13.5,7.23-23.13,7.23h-7.23c-9.16,0-16.88-2.42-23.13-7.23
		C1003.21,727.16,1000.09,718.24,1000.09,705.23z"/>
	<path class="st0" d="M1251.64,719.69L1123.7,405.97c-0.48-2.89,2.77-7.1,9.76-12.65c6.98-5.53,16.26-8.31,27.83-8.31
		c10.12,0,18.8,2.89,26.02,8.67c7.23,5.78,13.73,17.11,19.52,33.97l87.46,245.05l90.35-245.05c6.26-16.86,12.89-28.19,19.88-33.97
		c6.98-5.78,15.06-8.67,24.22-8.67c11.08,0,20.11,2.89,27.11,8.67c6.98,5.78,10.23,9.88,9.76,12.29l-126.5,312.27
		c-6.27,14.94-20.96,22.41-44.09,22.41C1270.44,740.65,1255.98,733.67,1251.64,719.69z"/>
	<path class="st0" d="M1496.68,562.11c0-53.01,16.99-96.61,50.96-130.84c33.97-34.21,77.94-51.32,131.92-51.32
		c53,0,96.5,17.24,130.48,51.68c33.97,34.46,50.96,78.43,50.96,131.92c0,53.02-16.99,96.62-50.96,130.83
		c-33.97,34.22-77.71,51.32-131.2,51.32c-53.98,0-97.83-17.1-131.56-51.32C1513.55,660.18,1496.68,616.08,1496.68,562.11z
		 M1794.5,563.55c0-36.14-10.84-66.02-32.53-89.63c-21.68-23.61-49.4-35.42-83.13-35.42c-33.25,0-60.97,11.69-83.13,35.06
		c-22.17,23.38-33.25,52.89-33.25,88.55c0,35.67,11.08,65.42,33.25,89.27c22.16,23.85,49.88,35.78,83.13,35.78
		c33.25,0,60.83-11.8,82.76-35.42C1783.53,628.13,1794.5,598.73,1794.5,563.55z"/>
</g>
<path class="st0" d="M585.44,330.79c-44.67-40.8-106.59-61.22-185.83-61.22H98.57c-26.4,2.39-39.6,16.33-39.6,41.78l0,0
	c0,12.33,9.99,22.32,22.32,22.32H398.2c56.15,0,100.08,14.89,131.77,44.64c31.71,29.78,47.55,71.07,47.55,123.88
	c0,53.79-15.75,95.42-47.19,124.95c-31.44,29.53-75.74,44.3-132.87,44.3H345.5c-14.25,0-25.8-11.55-25.8-25.8v0
	c0-20.29-16.45-36.73-36.73-36.73h0c-20.29,0-36.73,16.45-36.73,36.73v48.83c0,11.05,3.96,20.66,11.88,28.83
	c7.92,8.17,17.65,12.25,29.17,12.25h108.74c80.19,0,142.97-20.91,188.35-62.66c45.34-41.78,68.03-98.92,68.03-171.4
	C652.4,428.51,630.08,371.59,585.44,330.79z"/>
<path class="st0" d="M293.91,496.7H175.73c-26.4,2.39-39.6,16.33-39.6,41.78l0,0c0,12.33,9.99,22.32,22.32,22.32h135.46
	c17.7,0,32.05-14.35,32.05-32.05v0C325.96,511.05,311.61,496.7,293.91,496.7z"/>
<path class="st0" d="M292.43,382.29H119c-26.4,2.39-39.6,16.33-39.6,41.78v0c0,12.33,9.99,22.32,22.32,22.32h190.72
	c17.7,0,32.05-14.35,32.05-32.05v0C324.48,396.64,310.13,382.29,292.43,382.29z"/>
<path class="st0" d="M206.56,781.73c6.58-18.97,30.85-21.96,72.81-8.98c38.7,13.42,55.21,30.57,49.53,51.42
	c-6.58,18.97-30.45,21.9-71.59,8.81C219.29,819.79,202.37,802.7,206.56,781.73z"/>
<path class="st0" d="M451.96,825.98c-7.01-18.81,9.8-36.57,50.41-53.29c38.38-14.3,62.03-11.59,70.93,8.09
	c7.01,18.81-9.53,36.28-49.58,52.39C486.01,847.22,462.09,844.82,451.96,825.98z"/>
</svg>
