<svg width="100" height="80" viewBox="0 0 100 80" fill="none" xmlns="http://www.w3.org/2000/svg">
<path d="M68.8349 13.7607C65.1807 9.01333 60.1146 6.63852 53.6323 6.63852H29.0042C26.8443 6.91704 25.7641 8.53852 25.7641 11.5C25.7641 12.9341 26.5818 14.097 27.5901 14.097H53.5167C58.1104 14.097 61.7042 15.8296 64.2964 19.2904C66.8906 22.7556 68.187 27.5593 68.187 33.7037C68.187 39.9615 66.8984 44.8052 64.3266 48.2415C61.7547 51.6778 58.1307 53.3956 53.4568 53.3956H49.2057C48.0401 53.3956 47.0948 52.0511 47.0948 50.3933C47.0948 48.0326 45.7495 46.1193 44.0896 46.1193C42.4297 46.1193 41.0844 48.0326 41.0844 50.3933V56.0741C41.0844 57.36 41.4083 58.4778 42.0563 59.4282C42.7042 60.3785 43.5005 60.8533 44.4422 60.8533H53.338C59.8984 60.8533 65.0344 58.4207 68.7464 53.563C72.4557 48.7015 74.312 42.0541 74.312 33.6207C74.3125 25.1304 72.487 18.5074 68.8349 13.7607Z" fill="#1D0C72"/>
<path d="M44.9849 33.0637H35.3172C33.1573 33.3422 32.0771 34.9637 32.0771 37.9252C32.0771 39.3593 32.8948 40.5222 33.9031 40.5222H44.9849C46.4328 40.5222 47.6068 38.8526 47.6068 36.7933C47.6068 34.7333 46.4328 33.0637 44.9849 33.0637Z" fill="#1D0C72"/>
<path d="M44.8641 19.7526H30.676C28.5161 20.0311 27.4359 21.6526 27.4359 24.6141C27.4359 26.0482 28.2537 27.2111 29.262 27.2111H44.8646C46.3125 27.2111 47.4865 25.5415 47.4865 23.4822C47.4865 21.4222 46.3125 19.7526 44.8641 19.7526Z" fill="#1D0C72"/>
<path d="M37.839 66.2274C38.3771 64.0207 40.3625 63.6726 43.7953 65.183C46.9614 66.7444 48.312 68.7393 47.8474 71.1652C47.3094 73.3719 45.3562 73.7133 41.9911 72.1904C38.8802 70.6556 37.4958 68.6674 37.839 66.2274Z" fill="#1D0C72"/>
<path d="M57.9146 71.3756C57.3411 69.1867 58.7161 67.12 62.0391 65.1748C65.1792 63.5111 67.1135 63.8259 67.8422 66.1163C68.4156 68.3052 67.063 70.337 63.7864 72.2119C60.701 73.8467 58.7432 73.5681 57.9146 71.3756Z" fill="#1D0C72"/>
</svg>
